<svg xmlns="http://www.w3.org/2000/svg" version="1.1" xmlns:xlink="http://www.w3.org/1999/xlink" xmlns:svgjs="http://svgjs.dev/svgjs" width="1000" height="623" viewBox="0 0 1000 623"><g transform="matrix(1,0,0,1,-0.6060606060606233,0.2522267206477977)"><svg viewBox="0 0 396 247" data-background-color="#ffffff" preserveAspectRatio="xMidYMid meet" height="623" width="1000" xmlns="http://www.w3.org/2000/svg" xmlns:xlink="http://www.w3.org/1999/xlink"><g id="tight-bounds" transform="matrix(1,0,0,1,0.2400000000000091,-0.09999999999999432)"><svg viewBox="0 0 395.52 247.2" height="247.2" width="395.52"><g><svg></svg></g><g><svg viewBox="0 0 395.52 247.2" height="247.2" width="395.52"><g mask="url(&quot;#b8f93350-1b72-45d4-9450-caee4db9ed36&quot;)"><g><path xmlns="http://www.w3.org/2000/svg" d="M77.241 247.2v0c0-4.833 0.193-9.497 0.58-13.991 0.338-4.446 0.991-8.119 1.957-11.019v0c6.524-0.483 11.55-1.764 15.079-3.842 3.48-2.03 5.896-5.775 7.249-11.236 1.305-5.413 1.957-13.435 1.957-24.068v0-120.338c0-10.149-0.652-17.761-1.957-22.835-1.353-5.074-3.77-8.651-7.249-10.729-3.528-2.03-8.675-3.407-15.441-4.132v0c-0.725-3.141-1.257-7.201-1.595-12.179-0.387-4.929-0.58-9.207-0.58-12.831v0c5.316 0.242 11.84 0.411 19.573 0.507 7.733 0.145 16.021 0.266 24.865 0.363 8.796 0.145 17.06 0.217 24.792 0.217v0c5.558 0 11.599-0.121 18.124-0.362 6.524-0.242 13.653-0.362 21.385-0.363v0c13.532 0 26.822 0.918 39.871 2.755 13.049 1.788 25.131 5.099 36.246 9.932 11.116 4.833 20.902 11.647 29.36 20.443 8.457 8.844 15.054 20.08 19.79 33.709 4.688 13.677 7.032 30.423 7.032 50.237v0c0 19.573-2.416 36.367-7.249 50.383-4.833 14.015-11.236 25.735-19.211 35.158-7.974 9.424-16.794 17.036-26.46 22.836-9.666 5.799-19.573 10.149-29.722 13.048-10.149 2.9-19.621 4.833-28.417 5.8-8.844 0.967-16.408 1.45-22.69 1.45v0c-6.524 0-14.909 0.072-25.155 0.217-10.294 0.097-20.926 0.217-31.897 0.363-11.019 0.097-21.12 0.217-30.302 0.362-9.182 0.097-15.828 0.145-19.935 0.145zM196.129 221.828v0c5.558 0 11.72-1.16 18.486-3.48 6.766-2.271 13.169-6.742 19.21-13.411 6.041-6.621 10.946-16.408 14.716-29.36 3.721-12.904 5.582-30.229 5.582-51.977v0c0-19.331-1.933-35.473-5.799-48.425-3.866-12.904-9.11-23.053-15.731-30.447-6.669-7.346-14.112-12.59-22.328-15.731-8.216-3.141-16.794-4.712-25.735-4.712v0c-4.591 0-8.989 0.532-13.194 1.595-4.253 1.112-7.346 2.513-9.279 4.204v0l4.712-14.136v165.646c0 10.391 0.846 18.534 2.538 24.43 1.692 5.944 4.664 10.052 8.916 12.324 4.205 2.32 10.173 3.48 17.906 3.48z" fill="#000000" fill-rule="nonzero" stroke="none" stroke-width="1" stroke-linecap="butt" stroke-linejoin="miter" stroke-miterlimit="10" stroke-dasharray="" stroke-dashoffset="0" font-family="none" font-weight="none" font-size="none" text-anchor="none" style="mix-blend-mode: normal" data-fill-palette-color="tertiary"></path></g></g><g transform="matrix(1,0,0,1,2.842170943040401e-14,73.82859232175502)"><svg viewBox="0 0 395.5199999999999 99.54281535648992" height="99.54281535648992" width="395.5199999999999"><g><svg viewBox="0 0 395.5199999999999 99.54281535648992" height="99.54281535648992" width="395.5199999999999"><g><svg viewBox="0 0 395.5199999999999 99.54281535648992" height="99.54281535648992" width="395.5199999999999"><g><svg viewBox="0 0 395.5199999999999 99.54281535648992" height="99.54281535648992" width="395.5199999999999"><g id="textblocktransform"><svg viewBox="0 0 395.5199999999999 99.54281535648992" height="99.54281535648992" width="395.5199999999999" id="textblock"><g><svg viewBox="0 0 395.5199999999999 99.54281535648992" height="99.54281535648992" width="395.5199999999999"><g transform="matrix(1,0,0,1,0,0)"><svg width="395.5199999999999" viewBox="-1.149999976158142 -38.849998474121094 165.08999633789062 42.29999923706055" height="99.54281535648992" data-palette-color="#000000"><path d="M1.85 0.15L1.85 0.15Q1.85-0.85 1.93-1.78 2-2.7 2.2-3.3L2.2-3.3Q3.55-3.4 4.28-3.83 5-4.25 5.28-5.38 5.55-6.5 5.55-8.7L5.55-8.7 5.55-25.3Q5.55-27.4 5.28-28.45 5-29.5 4.28-29.93 3.55-30.35 2.15-30.5L2.15-30.5Q2-31.15 1.93-32.18 1.85-33.2 1.85-33.95L1.85-33.95Q2.95-33.9 4.55-33.88 6.15-33.85 7.98-33.83 9.8-33.8 11.4-33.8L11.4-33.8Q12.55-33.8 13.9-33.85 15.25-33.9 16.85-33.9L16.85-33.9Q19.65-33.9 22.35-33.52 25.05-33.15 27.35-32.15 29.65-31.15 31.4-29.33 33.15-27.5 34.13-24.68 35.1-21.85 35.1-17.75L35.1-17.75Q35.1-13.7 34.1-10.8 33.1-7.9 31.45-5.95 29.8-4 27.8-2.8 25.8-1.6 23.7-1 21.6-0.4 19.78-0.2 17.95 0 16.65 0L16.65 0Q15.3 0 13.18 0.03 11.05 0.05 8.78 0.08 6.5 0.1 4.6 0.13 2.7 0.15 1.85 0.15ZM18.25-3.35L18.25-3.35Q19.4-3.35 20.8-3.83 22.2-4.3 23.45-5.68 24.7-7.05 25.48-9.73 26.25-12.4 26.25-16.9L26.25-16.9Q26.25-20.9 25.45-23.58 24.65-26.25 23.28-27.78 21.9-29.3 20.2-29.95 18.5-30.6 16.65-30.6L16.65-30.6Q15.7-30.6 14.83-30.38 13.95-30.15 13.55-29.8L13.55-29.8 14.2-31.75 14.2-8.9Q14.2-6.75 14.55-5.53 14.9-4.3 15.78-3.83 16.65-3.35 18.25-3.35ZM48.45 0.3L48.45 0.3Q44.8 0.3 42.77-1.73 40.75-3.75 40.75-8.95L40.75-8.95 40.75-14.2Q40.75-16.45 40.25-17.35 39.75-18.25 37.6-18.4L37.6-18.4Q37.6-19.25 37.72-20.13 37.85-21 38.2-21.7L38.2-21.7Q41.35-21.7 43.8-22.23 46.25-22.75 47.45-23.35L47.45-23.35Q48.2-23.05 48.6-22.35 49-21.65 49-20.4L49-20.4 49-10.2Q49-6.85 49.65-5.58 50.3-4.3 51.65-4.3L51.65-4.3Q53.5-4.3 54.85-6.2 56.2-8.1 56.2-12.05L56.2-12.05 56.2-14.45Q56.2-16.7 55.55-17.6 54.9-18.5 52.6-18.65L52.6-18.65Q52.6-19.5 52.7-20.38 52.8-21.25 53.15-21.95L53.15-21.95Q56.4-21.95 59.05-22.38 61.7-22.8 62.85-23.35L62.85-23.35Q63.6-23.05 64-22.35 64.4-21.65 64.4-20.4L64.4-20.4 64.4-6.7 57.25-4.9Q56.9-3.95 56.45-3.23 56-2.5 55.4-1.95L55.4-1.95Q54.35-1 52.6-0.35 50.85 0.3 48.45 0.3ZM58.65 0.45L58.65 0.45Q57.7 0.1 57.3-0.58 56.9-1.25 56.9-2.4L56.9-2.4Q56.9-3.3 57.12-4.4 57.35-5.5 57.6-6.35L57.6-6.35 64.4-9.05Q64.4-7.3 64.6-6.38 64.8-5.45 65.42-5.13 66.05-4.8 67.3-4.75L67.3-4.75Q67.45-3.8 67.35-2.9 67.25-2 66.8-1.2L66.8-1.2Q64.8-1.15 62.65-0.75 60.5-0.35 58.65 0.45ZM69.55 0.15L69.55 0.15Q69.55-0.9 69.64-1.78 69.75-2.65 69.94-3.3L69.94-3.3Q71.94-3.4 72.59-4.28 73.25-5.15 73.25-7.65L73.25-7.65 73.25-27.4Q73.25-28.55 72.97-29.3 72.69-30.05 71.89-30.43 71.09-30.8 69.55-30.9L69.55-30.9Q69.55-31.75 69.67-32.63 69.8-33.5 70.14-34.2L70.14-34.2Q72.19-34.2 74.14-34.45 76.09-34.7 77.62-35.08 79.14-35.45 79.89-35.85L79.89-35.85Q80.64-35.55 81.07-34.85 81.5-34.15 81.5-32.95L81.5-32.95 81.5-7.65Q81.5-5.25 82-4.33 82.5-3.4 83.89-3.3L83.89-3.3Q84.14-2.65 84.19-1.75 84.25-0.85 84.25 0.15L84.25 0.15Q83.25 0.05 81.22 0.03 79.19 0 77.09 0L77.09 0Q75.69 0 74.19 0.03 72.69 0.05 71.44 0.08 70.19 0.1 69.55 0.15ZM89.89 0.45L89.89 0.45Q88.89-1.1 87.14-3.4 85.39-5.7 83.39-8.18 81.39-10.65 79.44-12.7L79.44-12.7 79.09-11 84.89-16.1Q86.19-17.25 86.62-17.82 87.05-18.4 87.05-18.75L87.05-18.75Q87.05-19.15 86.75-19.35 86.44-19.55 85.69-19.6L85.69-19.6Q85.39-20.5 85.27-21.33 85.14-22.15 85.14-23L85.14-23Q85.84-23 87.12-22.98 88.39-22.95 89.89-22.93 91.39-22.9 92.8-22.9L92.8-22.9Q94.05-22.9 95.25-22.93 96.44-22.95 97.5-23L97.5-23Q97.5-22.05 97.37-21.23 97.25-20.4 96.94-19.6L96.94-19.6Q95.64-19.5 94.64-19.23 93.64-18.95 92.69-18.35 91.75-17.75 90.5-16.6L90.5-16.6 86.75-13.1 86.05-15.85Q88.69-13.7 90.92-11.25 93.14-8.8 95.3-5.8L95.3-5.8Q96-4.9 96.55-4.4 97.09-3.9 97.69-3.68 98.3-3.45 99.14-3.35L99.14-3.35Q99.14-2.5 99.02-1.63 98.89-0.75 98.55 0L98.55 0Q97.3 0 95.69 0.05 94.09 0.1 92.55 0.18 91 0.25 89.89 0.45ZM118.59 0.45L118.59 0.45Q117.64 0.1 117.24-0.6 116.84-1.3 116.84-2.45L116.84-2.45Q116.84-3.1 116.99-4.03 117.14-4.95 117.44-5.8L117.44-5.8 117.64-6Q117.19-4.45 116.49-3.33 115.79-2.2 114.84-1.45L114.84-1.45Q113.79-0.55 112.29-0.1 110.79 0.35 108.84 0.35L108.84 0.35Q105.39 0.35 103.44-1.1 101.49-2.55 101.49-5.35L101.49-5.35Q101.49-7.25 102.37-8.63 103.24-10 104.77-10.98 106.29-11.95 108.17-12.55 110.04-13.15 112.07-13.53 114.09-13.9 116.04-14.2L116.04-14.2Q116.04-15.4 115.97-16.3 115.89-17.2 115.67-17.88 115.44-18.55 114.94-19.05L114.94-19.05Q114.39-19.7 113.67-19.95 112.94-20.2 112.24-20.2L112.24-20.2Q110.99-20.2 110.19-19.45 109.39-18.7 108.99-17.43 108.59-16.15 108.44-14.65L108.44-14.65Q106.99-14.65 105.84-14.75 104.69-14.85 103.74-15.25L103.74-15.25Q103.84-16.65 103.79-18.2 103.74-19.75 103.39-21.45L103.39-21.45Q105.54-22.35 108.44-22.88 111.34-23.4 113.99-23.4L113.99-23.4Q117.29-23.4 119.19-22.68 121.09-21.95 122.04-21L122.04-21Q123.04-20 123.67-18.18 124.29-16.35 124.29-12.8L124.29-12.8 124.29-8.95Q124.29-7.25 124.49-6.35 124.69-5.45 125.32-5.13 125.94-4.8 127.14-4.75L127.14-4.75Q127.29-3.8 127.19-2.9 127.09-2 126.69-1.2L126.69-1.2Q124.64-1.15 122.54-0.75 120.44-0.35 118.59 0.45ZM111.79-4.4L111.79-4.4Q112.79-4.4 113.77-5.03 114.74-5.65 115.39-6.95 116.04-8.25 116.04-10.15L116.04-10.15 116.04-11.3Q114.49-11 113.27-10.6 112.04-10.2 111.24-9.7 110.44-9.2 110.04-8.5 109.64-7.8 109.64-6.85L109.64-6.85Q109.64-5.55 110.27-4.98 110.89-4.4 111.79-4.4ZM141.84-20.4L133.59-10.35 133.59-14.2Q133.59-15.75 133.39-16.6 133.19-17.45 132.42-17.88 131.64-18.3 129.99-18.4L129.99-18.4Q129.99-19.25 130.12-20.13 130.24-21 130.59-21.7L130.59-21.7Q133.74-21.7 136.42-22.23 139.09-22.75 140.29-23.35L140.29-23.35Q141.04-23.05 141.44-22.35 141.84-21.65 141.84-20.4L141.84-20.4ZM158.14-14.95L158.14-7.65Q158.14-5.15 158.64-4.23 159.14-3.3 160.49-3.3L160.49-3.3Q160.79-2.6 160.87-1.78 160.94-0.95 160.94 0.15L160.94 0.15Q159.84 0.1 157.97 0.05 156.09 0 154.39 0L154.39 0Q153.24 0 151.74 0.03 150.24 0.05 148.89 0.08 147.54 0.1 146.79 0.15L146.79 0.15Q146.79-0.8 146.87-1.68 146.94-2.55 147.24-3.3L147.24-3.3Q148.49-3.3 149.19-4.33 149.89-5.35 149.89-8.05L149.89-8.05 149.89-12.55Q149.89-15.6 148.99-16.78 148.09-17.95 146.39-17.95L146.39-17.95Q145.19-17.95 144.14-17 143.09-16.05 142.47-14.3 141.84-12.55 141.84-10.05L141.84-10.05 141.84-7.65Q141.84-5.1 142.49-4.2 143.14-3.3 144.44-3.3L144.44-3.3Q144.79-2.5 144.87-1.7 144.94-0.9 144.94 0.15L144.94 0.15Q144.19 0.1 142.94 0.08 141.69 0.05 140.29 0.03 138.89 0 137.74 0L137.74 0Q136.59 0 135.04 0.03 133.49 0.05 132.06 0.08 130.64 0.1 129.89 0.15L129.89 0.15Q129.89-0.9 130.02-1.8 130.14-2.7 130.34-3.3L130.34-3.3Q132.29-3.3 132.94-4.23 133.59-5.15 133.59-7.65L133.59-7.65 133.59-14.2 141.84-20.4Q141.84-19.8 141.69-19.03 141.54-18.25 141.29-17.4L141.29-17.4Q141.64-18.2 142.02-18.9 142.39-19.6 142.94-20.2L142.94-20.2Q144.04-21.4 145.81-22.25 147.59-23.1 149.79-23.1L149.79-23.1Q151.99-23.1 153.89-22.3 155.79-21.5 156.97-19.7 158.14-17.9 158.14-14.95L158.14-14.95Z" opacity="1" transform="matrix(1,0,0,1,0,0)" fill="#000000" class="undefined-text-0" data-fill-palette-color="primary" id="text-0"></path></svg></g></svg></g></svg></g></svg></g></svg></g></svg></g></svg></g></svg></g><defs><mask id="b8f93350-1b72-45d4-9450-caee4db9ed36"><rect width="395.52" height="247.2" fill="white"></rect><g transform="matrix(1,0,0,1,2.842170943040401e-14,73.82859232175502)" id="clone"><svg viewBox="0 0 395.5199999999999 99.54281535648992" height="99.54281535648992" width="395.5199999999999"><g><svg viewBox="0 0 395.5199999999999 99.54281535648992" height="99.54281535648992" width="395.5199999999999"><g><svg viewBox="0 0 395.5199999999999 99.54281535648992" height="99.54281535648992" width="395.5199999999999"><g><svg viewBox="0 0 395.5199999999999 99.54281535648992" height="99.54281535648992" width="395.5199999999999"><g id="SvgjsG1044"><svg viewBox="0 0 395.5199999999999 99.54281535648992" height="99.54281535648992" width="395.5199999999999" id="SvgjsSvg1043"><g><svg viewBox="0 0 395.5199999999999 99.54281535648992" height="99.54281535648992" width="395.5199999999999"><g transform="matrix(1,0,0,1,0,0)"><svg width="395.5199999999999" viewBox="-1.149999976158142 -38.849998474121094 165.08999633789062 42.29999923706055" height="99.54281535648992" data-palette-color="#000000"><path d="M1.85 0.15L1.85 0.15Q1.85-0.85 1.93-1.78 2-2.7 2.2-3.3L2.2-3.3Q3.55-3.4 4.28-3.83 5-4.25 5.28-5.38 5.55-6.5 5.55-8.7L5.55-8.7 5.55-25.3Q5.55-27.4 5.28-28.45 5-29.5 4.28-29.93 3.55-30.35 2.15-30.5L2.15-30.5Q2-31.15 1.93-32.18 1.85-33.2 1.85-33.95L1.85-33.95Q2.95-33.9 4.55-33.88 6.15-33.85 7.98-33.83 9.8-33.8 11.4-33.8L11.4-33.8Q12.55-33.8 13.9-33.85 15.25-33.9 16.85-33.9L16.85-33.9Q19.65-33.9 22.35-33.52 25.05-33.15 27.35-32.15 29.65-31.15 31.4-29.33 33.15-27.5 34.13-24.68 35.1-21.85 35.1-17.75L35.1-17.75Q35.1-13.7 34.1-10.8 33.1-7.9 31.45-5.95 29.8-4 27.8-2.8 25.8-1.6 23.7-1 21.6-0.4 19.78-0.2 17.95 0 16.65 0L16.65 0Q15.3 0 13.18 0.03 11.05 0.05 8.78 0.08 6.5 0.1 4.6 0.13 2.7 0.15 1.85 0.15ZM18.25-3.35L18.25-3.35Q19.4-3.35 20.8-3.83 22.2-4.3 23.45-5.68 24.7-7.05 25.48-9.73 26.25-12.4 26.25-16.9L26.25-16.9Q26.25-20.9 25.45-23.58 24.65-26.25 23.28-27.78 21.9-29.3 20.2-29.95 18.5-30.6 16.65-30.6L16.65-30.6Q15.7-30.6 14.83-30.38 13.95-30.15 13.55-29.8L13.55-29.8 14.2-31.75 14.2-8.9Q14.2-6.75 14.55-5.53 14.9-4.3 15.78-3.83 16.65-3.35 18.25-3.35ZM48.45 0.3L48.45 0.3Q44.8 0.3 42.77-1.73 40.75-3.75 40.75-8.95L40.75-8.95 40.75-14.2Q40.75-16.45 40.25-17.35 39.75-18.25 37.6-18.4L37.6-18.4Q37.6-19.25 37.72-20.13 37.85-21 38.2-21.7L38.2-21.7Q41.35-21.7 43.8-22.23 46.25-22.75 47.45-23.35L47.45-23.35Q48.2-23.05 48.6-22.35 49-21.65 49-20.4L49-20.4 49-10.2Q49-6.85 49.65-5.58 50.3-4.3 51.65-4.3L51.65-4.3Q53.5-4.3 54.85-6.2 56.2-8.1 56.2-12.05L56.2-12.05 56.2-14.45Q56.2-16.7 55.55-17.6 54.9-18.5 52.6-18.65L52.6-18.65Q52.6-19.5 52.7-20.38 52.8-21.25 53.15-21.95L53.15-21.95Q56.4-21.95 59.05-22.38 61.7-22.8 62.85-23.35L62.85-23.35Q63.6-23.05 64-22.35 64.4-21.65 64.4-20.4L64.4-20.4 64.4-6.7 57.25-4.9Q56.9-3.95 56.45-3.23 56-2.5 55.4-1.95L55.4-1.95Q54.35-1 52.6-0.35 50.85 0.3 48.45 0.3ZM58.65 0.45L58.65 0.45Q57.7 0.1 57.3-0.58 56.9-1.25 56.9-2.4L56.9-2.4Q56.9-3.3 57.12-4.4 57.35-5.5 57.6-6.35L57.6-6.35 64.4-9.05Q64.4-7.3 64.6-6.38 64.8-5.45 65.42-5.13 66.05-4.8 67.3-4.75L67.3-4.75Q67.45-3.8 67.35-2.9 67.25-2 66.8-1.2L66.8-1.2Q64.8-1.15 62.65-0.75 60.5-0.35 58.65 0.45ZM69.55 0.15L69.55 0.15Q69.55-0.9 69.64-1.78 69.75-2.65 69.94-3.3L69.94-3.3Q71.94-3.4 72.59-4.28 73.25-5.15 73.25-7.65L73.25-7.65 73.25-27.4Q73.25-28.55 72.97-29.3 72.69-30.05 71.89-30.43 71.09-30.8 69.55-30.9L69.55-30.9Q69.55-31.75 69.67-32.63 69.8-33.5 70.14-34.2L70.14-34.2Q72.19-34.2 74.14-34.45 76.09-34.7 77.62-35.08 79.14-35.45 79.89-35.85L79.89-35.85Q80.64-35.55 81.07-34.85 81.5-34.15 81.5-32.95L81.5-32.95 81.5-7.65Q81.5-5.25 82-4.33 82.5-3.4 83.89-3.3L83.89-3.3Q84.14-2.65 84.19-1.75 84.25-0.85 84.25 0.15L84.25 0.15Q83.25 0.05 81.22 0.03 79.19 0 77.09 0L77.09 0Q75.69 0 74.19 0.03 72.69 0.05 71.44 0.08 70.19 0.1 69.55 0.15ZM89.89 0.45L89.89 0.45Q88.89-1.1 87.14-3.4 85.39-5.7 83.39-8.18 81.39-10.65 79.44-12.7L79.44-12.7 79.09-11 84.89-16.1Q86.19-17.25 86.62-17.82 87.05-18.4 87.05-18.75L87.05-18.75Q87.05-19.15 86.75-19.35 86.44-19.55 85.69-19.6L85.69-19.6Q85.39-20.5 85.27-21.33 85.14-22.15 85.14-23L85.14-23Q85.84-23 87.12-22.98 88.39-22.95 89.89-22.93 91.39-22.9 92.8-22.9L92.8-22.9Q94.05-22.9 95.25-22.93 96.44-22.95 97.5-23L97.5-23Q97.5-22.05 97.37-21.23 97.25-20.4 96.94-19.6L96.94-19.6Q95.64-19.5 94.64-19.23 93.64-18.95 92.69-18.35 91.75-17.75 90.5-16.6L90.5-16.6 86.75-13.1 86.05-15.85Q88.69-13.7 90.92-11.25 93.14-8.8 95.3-5.8L95.3-5.8Q96-4.9 96.55-4.4 97.09-3.9 97.69-3.68 98.3-3.45 99.14-3.35L99.14-3.35Q99.14-2.5 99.02-1.63 98.89-0.75 98.55 0L98.55 0Q97.3 0 95.69 0.05 94.09 0.1 92.55 0.18 91 0.25 89.89 0.45ZM118.59 0.45L118.59 0.45Q117.64 0.1 117.24-0.6 116.84-1.3 116.84-2.45L116.84-2.45Q116.84-3.1 116.99-4.03 117.14-4.95 117.44-5.8L117.44-5.8 117.64-6Q117.19-4.45 116.49-3.33 115.79-2.2 114.84-1.45L114.84-1.45Q113.79-0.55 112.29-0.1 110.79 0.35 108.84 0.35L108.84 0.35Q105.39 0.35 103.44-1.1 101.49-2.55 101.49-5.35L101.49-5.35Q101.49-7.25 102.37-8.63 103.24-10 104.77-10.98 106.29-11.95 108.17-12.55 110.04-13.15 112.07-13.53 114.09-13.9 116.04-14.2L116.04-14.2Q116.04-15.4 115.97-16.3 115.89-17.2 115.67-17.88 115.44-18.55 114.94-19.05L114.94-19.05Q114.39-19.7 113.67-19.95 112.94-20.2 112.24-20.2L112.24-20.2Q110.99-20.2 110.19-19.45 109.39-18.7 108.99-17.43 108.59-16.15 108.44-14.65L108.44-14.65Q106.99-14.65 105.84-14.75 104.69-14.85 103.74-15.25L103.74-15.25Q103.84-16.65 103.79-18.2 103.74-19.75 103.39-21.45L103.39-21.45Q105.54-22.35 108.44-22.88 111.34-23.4 113.99-23.4L113.99-23.4Q117.29-23.4 119.19-22.68 121.09-21.95 122.04-21L122.04-21Q123.04-20 123.67-18.18 124.29-16.35 124.29-12.8L124.29-12.8 124.29-8.95Q124.29-7.25 124.49-6.35 124.69-5.45 125.32-5.13 125.94-4.8 127.14-4.75L127.14-4.75Q127.29-3.8 127.19-2.9 127.09-2 126.69-1.2L126.69-1.2Q124.64-1.15 122.54-0.75 120.44-0.35 118.59 0.45ZM111.79-4.4L111.79-4.4Q112.79-4.4 113.77-5.03 114.74-5.65 115.39-6.95 116.04-8.25 116.04-10.15L116.04-10.15 116.04-11.3Q114.49-11 113.27-10.6 112.04-10.2 111.24-9.7 110.44-9.2 110.04-8.5 109.64-7.8 109.64-6.85L109.64-6.85Q109.64-5.55 110.27-4.98 110.89-4.4 111.79-4.4ZM141.84-20.4L133.59-10.35 133.59-14.2Q133.59-15.75 133.39-16.6 133.19-17.45 132.42-17.88 131.64-18.3 129.99-18.4L129.99-18.4Q129.99-19.25 130.12-20.13 130.24-21 130.59-21.7L130.59-21.7Q133.74-21.7 136.42-22.23 139.09-22.75 140.29-23.35L140.29-23.35Q141.04-23.05 141.44-22.35 141.84-21.65 141.84-20.4L141.84-20.4ZM158.14-14.95L158.14-7.65Q158.14-5.15 158.64-4.23 159.14-3.3 160.49-3.3L160.49-3.3Q160.79-2.6 160.87-1.78 160.94-0.95 160.94 0.15L160.94 0.15Q159.84 0.1 157.97 0.05 156.09 0 154.39 0L154.39 0Q153.24 0 151.74 0.03 150.24 0.05 148.89 0.08 147.54 0.1 146.79 0.15L146.79 0.15Q146.79-0.8 146.87-1.68 146.94-2.55 147.24-3.3L147.24-3.3Q148.49-3.3 149.19-4.33 149.89-5.35 149.89-8.05L149.89-8.05 149.89-12.55Q149.89-15.6 148.99-16.78 148.09-17.95 146.39-17.95L146.39-17.95Q145.19-17.95 144.14-17 143.09-16.05 142.47-14.3 141.84-12.55 141.84-10.05L141.84-10.05 141.84-7.65Q141.84-5.1 142.49-4.2 143.14-3.3 144.44-3.3L144.44-3.3Q144.79-2.5 144.87-1.7 144.94-0.9 144.94 0.15L144.94 0.15Q144.19 0.1 142.94 0.08 141.69 0.05 140.29 0.03 138.89 0 137.74 0L137.74 0Q136.59 0 135.04 0.03 133.49 0.05 132.06 0.08 130.64 0.1 129.89 0.15L129.89 0.15Q129.89-0.9 130.02-1.8 130.14-2.7 130.34-3.3L130.34-3.3Q132.29-3.3 132.94-4.23 133.59-5.15 133.59-7.65L133.59-7.65 133.59-14.2 141.84-20.4Q141.84-19.8 141.69-19.03 141.54-18.25 141.29-17.4L141.29-17.4Q141.64-18.2 142.02-18.9 142.39-19.6 142.94-20.2L142.94-20.2Q144.04-21.4 145.81-22.25 147.59-23.1 149.79-23.1L149.79-23.1Q151.99-23.1 153.89-22.3 155.79-21.5 156.97-19.7 158.14-17.9 158.14-14.95L158.14-14.95Z" opacity="1" transform="matrix(1,0,0,1,0,0)" fill="#000000" class="undefined-text-0" data-fill-palette-color="primary" id="SvgjsPath1042" stroke-width="5" stroke="black" stroke-linejoin="round"></path></svg></g></svg></g></svg></g></svg></g></svg></g></svg></g></svg></g></mask></defs></svg><rect width="395.52" height="247.2" fill="none" stroke="none" visibility="hidden"></rect></g></svg></g></svg>